<svg width="73" height="73" viewBox="0 0 73 73" fill="none" xmlns="http://www.w3.org/2000/svg">
<path d="M32 36.5L32 35.5L28 11.5L30 3.72727e-06L43 3.15903e-06L45 11.5L41 35.5L41 36.5L32 36.5Z" fill="#FF5C00"/>
<path d="M32 36.5L32 37.5L28 61.5L30 73L43 73L45 61.5L41 37.5L41 36.5L32 36.5Z" fill="#FF5C00"/>
<path d="M36.5 32L37.5 32L61.5 28L73 30L73 43L61.5 45L37.5 41H36.5L36.5 32Z" fill="#FF5C00"/>
<path d="M36.5 32L35.5 32L11.5 28L-2.68777e-05 30L-2.80142e-05 43L11.5 45L35.5 41L36.5 41L36.5 32Z" fill="#FF5C00"/>
<path d="M39.682 33.3181L40.3891 34.0252L60.1881 48.1673L66.9056 57.7132L57.7132 66.9056L48.1673 60.1881L34.0252 40.3891L33.318 39.682L39.682 33.3181Z" fill="#FF5C00"/>
<path d="M39.682 33.318L38.9749 32.6109L24.8328 12.812L15.2868 6.09444L6.09444 15.2868L12.812 24.8328L32.6109 38.9749L33.318 39.682L39.682 33.318Z" fill="#FF5C00"/>
<path d="M39.682 39.682L38.9749 40.3891L24.8327 60.1881L15.2868 66.9056L6.09441 57.7132L12.8119 48.1673L32.6109 34.0252L33.318 33.3181L39.682 39.682Z" fill="#FF5C00"/>
<path d="M39.682 39.682L40.3891 38.9749L60.1881 24.8328L66.9056 15.2868L57.7132 6.09444L48.1673 12.812L34.0251 32.6109L33.318 33.318L39.682 39.682Z" fill="#FF5C00"/>
<circle cx="37" cy="36" r="28" fill="#FF5C00"/>
<circle cx="37" cy="36" r="14" fill="white"/>
</svg>
